<svg width="1256" height="571" viewBox="0 0 1256 571" fill="none" xmlns="http://www.w3.org/2000/svg">
<path d="M98.2883 249.591C97.2415 249.198 96.3629 248.226 95.6526 246.675C94.9423 245.123 94.2506 242.357 93.5963 238.394C92.9421 234.431 92.2317 228.748 91.4466 221.327C90.3998 211.831 89.5025 204.522 88.7174 199.381C87.9323 194.24 87.1659 190.128 86.3808 187.006C86.2499 186.221 86.1938 185.455 86.1938 184.67C86.1938 183.118 86.4555 181.361 86.979 179.398C87.8949 176.538 89.0539 174.65 90.4933 173.753C91.4092 173.229 92.3065 172.968 93.2225 172.968C94.0076 172.968 94.774 173.229 95.5591 173.753C97.1107 174.669 98.1014 176.22 98.4753 178.426C98.6061 179.604 98.8304 181.996 99.1669 185.642C99.4847 189.287 99.8586 193.306 100.232 197.736C101.018 207.625 101.784 212.56 102.569 212.56C103.092 212.56 103.541 211.195 103.934 208.466C104.85 204.167 106.794 197.736 109.785 189.156C112.776 180.576 115.561 173.435 118.178 167.715C125.319 152.76 133.263 141.133 141.974 132.815C149.246 125.917 155.826 122.477 161.677 122.477H163.042C169.154 122.477 174.164 126.571 178.052 134.759C182.071 143.208 185.529 157.695 188.39 178.239C188.913 181.623 189.362 184.744 189.754 187.604C190.147 190.464 190.464 192.409 190.726 193.455L191.306 197.157L197.942 187.025C204.316 177.529 211.102 169.902 218.317 164.107C225.533 158.331 232.001 155.359 237.721 155.228C243.834 155.228 249.423 158.611 254.489 165.359C255.535 167.042 256.9 169.752 258.582 173.454C260.265 177.155 261.966 181.024 263.648 185.062C267.032 193.904 270.116 200.895 272.901 206.017C275.705 211.158 278.921 215.663 282.547 219.57C293.857 231.272 305.558 237.123 317.653 237.123C322.457 237.123 327.411 236.151 332.477 234.206C345.73 228.094 359.769 216.392 374.592 199.101C383.173 189.605 389.024 184.875 392.145 184.875C392.8 184.875 393.323 185.062 393.697 185.455C394.22 185.847 394.482 186.427 394.482 187.212C394.482 190.857 389.416 198.783 379.266 211.008C366.124 225.963 352.217 237.01 337.542 244.151C330.776 247.011 324.027 248.432 317.26 248.432C304.642 248.432 292.174 243.366 279.818 233.216C274.359 228.542 269.574 222.785 265.48 215.962C261.386 209.139 257.068 199.867 252.507 188.184C247.049 173.753 242.114 166.537 237.683 166.537C237.291 166.537 236.842 166.612 236.319 166.724C226.299 169.846 215.981 179.921 205.307 196.951C202.447 201.755 200.166 205.531 198.484 208.26C196.801 210.99 195.456 213.008 194.483 214.298C193.511 215.607 192.67 216.448 191.941 216.84C191.231 217.233 190.483 217.495 189.698 217.626H189.119C187.567 217.626 186.128 217.177 184.838 216.261C183.398 215.214 182.426 213.794 181.922 211.98C181.791 211.195 181.398 208.69 180.744 204.466C180.09 200.241 179.379 195.343 178.594 189.735C173.921 156.592 169.36 138.385 164.948 135.133C164.032 134.217 163.004 133.768 161.826 133.768C160.911 133.768 159.882 134.03 158.705 134.553C156.237 135.731 152.798 138.591 148.367 143.133C132.385 158.219 119.58 187.586 109.953 231.272C109.037 235.179 108.196 238.655 107.411 241.702C106.626 244.749 106.046 246.619 105.653 247.254C104.476 249.086 102.924 249.984 100.98 249.984C100.102 249.984 99.1856 249.853 98.2883 249.591Z" fill="#545454"/>
<path d="M502.118 274.752C496.136 273.07 489.93 270.21 483.499 266.172C477.069 262.153 471.442 257.667 466.638 252.713C452.861 237.385 442.524 218.916 435.626 197.344C434.579 194.222 433.7 191.661 432.99 189.642C432.28 187.623 431.85 186.614 431.719 186.614C431.457 186.745 430.485 188.165 428.803 190.913C427.12 193.642 425.027 197.082 422.559 201.251C413.194 217.102 405.661 226.673 399.941 229.907C397.735 230.954 395.641 231.459 393.697 231.459C391.884 231.459 390.127 231.01 388.426 230.094C384.911 228.412 382.649 225.29 381.602 220.729C381.079 217.476 380.817 214.168 380.817 210.784C380.817 202.858 382.369 194.54 385.491 185.829C390.164 173.342 397.38 164.518 407.137 159.303C410.652 157.752 414.278 156.966 418.054 156.966C419.232 156.966 420.466 157.041 421.755 157.153C426.952 157.808 431.308 159.696 434.822 162.799C436.504 164.35 438.037 166.537 439.402 169.323C440.766 172.127 441.514 174.482 441.645 176.445C441.645 177.996 442.449 181.361 444.075 186.483C445.701 191.624 447.552 197.007 449.627 202.671C451.702 208.335 453.459 212.579 454.899 215.439C464.395 234.151 474.825 247.161 486.191 254.433C497.556 261.723 508.249 265.35 518.268 265.35C522.287 265.35 526.4 264.826 530.55 263.798C543.28 260.807 553.86 254.339 562.235 244.394C570.628 234.45 578.778 218.243 586.704 195.736C589.041 189.754 590.985 186.371 592.555 185.604C594.107 184.819 595.284 184.427 596.07 184.427C597.247 184.427 598.219 185.081 598.986 186.371C599.64 187.418 599.958 188.707 599.958 190.278C599.958 191.586 599.771 192.951 599.378 194.372C597.565 199.568 595.023 206.13 591.77 214.074C588.517 222 585.788 227.982 583.582 232.02C570.722 255.816 554.197 270.042 534.046 274.715C529.634 275.762 524.232 276.266 517.857 276.266C511.67 276.304 506.398 275.78 502.118 274.752ZM401.305 213.121C403.773 209.737 407.193 204.541 411.549 197.512C415.905 190.483 419.905 183.604 423.531 176.837C424.578 175.024 425.251 173.753 425.588 173.043C425.905 172.332 426.074 171.771 426.074 171.379C426.074 171.117 425.999 170.93 425.887 170.799C425.756 170.407 425.363 169.958 424.709 169.435C423.027 168.388 421.195 167.883 419.251 167.883C416.391 167.883 413.213 168.93 409.698 171.005C404.894 174.127 400.95 178.931 397.903 185.436C394.856 191.941 393.061 199.157 392.538 207.083C392.276 209.289 392.145 211.177 392.145 212.728C392.145 217.271 392.931 219.551 394.482 219.551C396.034 219.551 398.314 217.42 401.305 213.121Z" fill="#545454"/>
<path d="M723.239 246.862C706.34 241.927 693.274 229.889 684.039 210.784C682.992 208.447 681.665 205.157 680.039 200.933C678.413 196.708 676.88 192.446 675.459 188.165C670.393 173.342 666.561 164.761 663.963 162.425C661.364 160.088 659.084 158.91 657.14 158.91C654.28 158.91 650.971 160.462 647.195 163.584C635.493 171.902 624.894 190.371 615.417 218.953C612.556 228.057 610.257 233.945 608.5 236.599C606.743 239.272 605.023 240.6 603.341 240.6C602.948 240.6 602.5 240.544 601.976 240.413C600.032 239.889 598.537 238.469 597.49 236.132C596.574 233.665 595.546 228.823 594.368 221.607C593.19 214.392 592.218 206.372 591.452 197.531C591.059 193.755 590.667 190.539 590.274 187.885C589.882 185.23 589.564 183.698 589.302 183.305C588.648 182.52 588.33 181.23 588.33 179.398V178.426C588.33 176.22 588.648 173.977 589.302 171.697C589.956 169.416 590.798 167.902 591.844 167.117C592.76 166.593 593.658 166.332 594.574 166.332C595.097 166.332 595.62 166.406 596.125 166.519C597.546 166.78 598.724 167.565 599.639 168.855C600.555 170.668 601.453 177.828 602.369 190.296C602.761 195.755 603.154 200.428 603.546 204.335C603.939 208.242 604.257 210.448 604.518 210.971C604.649 211.102 604.78 211.158 604.911 211.158C605.434 211.158 606.593 208.747 608.425 203.942C617.267 180.538 626.296 165.304 635.53 158.219C644.765 151.134 652.036 147.582 657.364 147.582C662.822 147.582 667.888 149.994 672.58 154.798C674.655 157.004 676.674 160.256 678.618 164.556C680.562 168.837 683.161 175.678 686.413 185.025C692.395 203.101 698.433 215.177 704.546 221.29C714.416 231.814 724.697 237.085 735.352 237.085C736.904 237.085 738.53 236.955 740.231 236.693C747.895 235.272 755.242 231.403 762.27 225.084C769.299 218.785 777.094 208.877 785.674 195.343C790.871 188.203 794.778 184.614 797.376 184.614C798.03 184.614 798.61 184.801 799.133 185.193C800.049 185.978 800.498 187.081 800.498 188.502C800.498 191.362 798.872 195.587 795.619 201.176C786.254 215.345 778.459 225.496 772.215 231.59C760.251 242.768 747.839 248.357 734.978 248.357C731.165 248.413 727.258 247.909 723.239 246.862Z" fill="#545454"/>
<path d="M908.077 274.752C902.096 273.07 895.889 270.21 889.459 266.172C883.029 262.153 877.402 257.667 872.598 252.713C858.821 237.385 848.484 218.916 841.586 197.344C840.539 194.222 839.66 191.661 838.95 189.642C838.24 187.623 837.81 186.614 837.679 186.614C837.417 186.745 836.445 188.165 834.763 190.913C833.062 193.642 830.987 197.082 828.519 201.251C819.154 217.102 811.621 226.673 805.9 229.907C803.695 230.954 801.62 231.459 799.657 231.459C797.825 231.459 796.087 231.01 794.385 230.094C790.871 228.412 788.609 225.29 787.562 220.729C787.039 217.476 786.777 214.168 786.777 210.784C786.777 202.858 788.329 194.54 791.451 185.829C796.124 173.342 803.34 164.518 813.097 159.303C816.612 157.752 820.238 156.966 824.014 156.966C825.192 156.966 826.426 157.041 827.715 157.153C832.912 157.808 837.268 159.696 840.782 162.799C842.464 164.35 843.997 166.537 845.362 169.323C846.726 172.127 847.474 174.482 847.605 176.445C847.605 177.996 848.409 181.361 850.035 186.483C851.661 191.624 853.512 197.007 855.587 202.671C857.662 208.335 859.419 212.579 860.858 215.439C870.355 234.151 880.785 247.161 892.151 254.433C903.516 261.723 914.209 265.35 924.228 265.35C928.247 265.35 932.36 264.826 936.51 263.798C949.24 260.807 959.82 254.339 968.195 244.394C976.588 234.45 984.738 218.243 992.664 195.736C995.001 189.754 996.945 186.371 998.515 185.604C1000.07 184.819 1001.24 184.427 1002.03 184.427C1003.21 184.427 1004.18 185.081 1004.95 186.371C1005.6 187.418 1005.92 188.707 1005.92 190.278C1005.92 191.586 1005.73 192.951 1005.34 194.372C1003.52 199.568 1000.98 206.13 997.73 214.074C994.477 222 991.748 227.982 989.542 232.02C976.681 255.816 960.157 270.042 940.005 274.715C935.575 275.762 930.191 276.266 923.817 276.266C917.63 276.304 912.377 275.78 908.077 274.752ZM807.265 213.121C809.733 209.737 813.153 204.541 817.509 197.512C821.864 190.483 825.865 183.604 829.51 176.837C830.557 175.024 831.23 173.753 831.566 173.043C831.884 172.332 832.052 171.771 832.052 171.379C832.052 171.117 831.977 170.93 831.865 170.799C831.734 170.407 831.342 169.958 830.688 169.435C829.005 168.388 827.173 167.883 825.229 167.883C822.369 167.883 819.191 168.93 815.677 171.005C810.873 174.127 806.929 178.931 803.882 185.436C800.835 191.941 799.04 199.157 798.517 207.083C798.255 209.289 798.124 211.177 798.124 212.728C798.124 217.271 798.909 219.551 800.461 219.551C802.012 219.551 804.274 217.42 807.265 213.121Z" fill="#545454"/>
<path d="M934.79 569.768C913.984 565.338 898.226 553.654 887.496 534.662C876.766 515.689 871.401 494.808 871.401 472.077C871.401 467.797 871.588 463.366 871.981 458.824C874.579 429.438 884.468 401.94 901.628 376.35C915.405 354.908 933.93 335.038 957.203 316.774C980.476 298.511 1012.07 279.051 1051.96 258.377L1069.7 249.217L1069.31 243.572C1069.04 241.235 1068.39 237.104 1067.36 231.197C1066.32 225.29 1065.19 218.953 1063.94 212.186C1062.71 205.438 1061.57 199.587 1060.52 194.633C1059.47 189.698 1058.84 187.231 1058.58 187.231C1058.45 187.231 1058.13 187.81 1057.6 188.988C1057.08 190.165 1056.56 191.661 1056.05 193.474C1055.4 195.287 1054.46 197.736 1053.23 200.783C1052 203.83 1050.67 206.802 1049.23 209.662C1040.39 226.823 1031.1 235.403 1021.34 235.403H1020.55C1010.53 234.879 1002.95 225.402 997.749 206.933C996.328 201.344 995.412 195.755 995.019 190.165C994.627 184.576 994.44 179.959 994.44 176.314C994.44 173.585 994.515 170.986 994.627 168.519C995.15 162.668 996.066 158.966 997.356 157.396C998.534 156.106 999.767 155.452 1001.06 155.452C1002.1 155.452 1003.21 155.901 1004.37 156.817C1004.89 157.209 1005.3 157.864 1005.64 158.761C1005.95 159.677 1006.16 161.041 1006.22 162.855C1006.27 164.668 1006.31 166.5 1006.31 168.313C1006.31 170.126 1006.24 172.276 1006.12 174.744V178.052C1006.12 185.716 1006.52 192.166 1007.3 197.362C1008.35 203.475 1010.09 209.12 1012.57 214.336C1015.43 220.71 1018.42 223.888 1021.55 223.888C1022.2 223.888 1022.91 223.701 1023.69 223.308C1033.7 218.112 1042.28 202.316 1049.44 175.921C1050.86 169.939 1052.22 165.939 1053.53 163.939C1054.82 161.92 1056.46 160.911 1058.41 160.911C1060.74 160.911 1062.67 162.051 1064.17 164.331C1065.66 166.612 1067.29 171.622 1069.04 179.342C1070.8 187.081 1073.04 198.746 1075.77 214.336L1081.05 242.992L1084.35 241.048C1089.94 237.665 1100.41 231.889 1115.74 223.701C1131.07 215.513 1145.99 207.606 1160.49 200.017C1174.98 192.409 1183.86 187.96 1187.11 186.651C1189.05 185.997 1190.81 185.679 1192.38 185.679C1193.93 185.679 1195.24 185.997 1196.29 186.651C1198.1 187.698 1199.02 189.062 1199.02 190.745V191.717C1198.63 193.792 1196.55 195.493 1192.77 196.783C1190.94 197.437 1185.24 200.222 1175.61 205.176C1165.99 210.111 1154.66 216.037 1141.59 222.916C1128.53 229.814 1115.95 236.562 1103.87 243.198L1082.62 254.694L1083.4 259.76C1086.39 285.108 1087.89 309.091 1087.89 331.71C1087.89 400.09 1074.11 456.506 1046.56 500.958C1039.92 511.875 1031.55 522.53 1021.4 532.942C1004.24 550.626 986.234 562.197 967.391 567.656C962.587 568.945 957.932 569.768 953.446 570.086C948.959 570.404 945.613 570.572 943.408 570.572C940.136 570.553 937.276 570.291 934.79 569.768ZM964.045 556.514C982.252 551.449 999.468 540.102 1015.71 522.493C1031.96 504.884 1045.15 483.331 1055.3 457.852C1069.74 419.755 1076.95 377.639 1076.95 331.505C1076.95 324.214 1076.76 316.887 1076.37 309.465C1075.19 288.791 1073.83 273.724 1072.28 264.228L1071.7 260.527L1061.17 266.378C1002.55 297.053 962.568 323.635 941.258 346.123C902.395 384.855 882.954 426.915 882.954 472.283V472.862C882.954 501.986 891.216 525.054 907.722 542.083C918.247 553.524 930.864 559.244 945.557 559.244C951.371 559.244 957.54 558.328 964.045 556.514Z" fill="#545454"/>
<path d="M505.445 366.274C502.716 367.564 499.556 368.218 495.986 368.218C492.733 368.218 489.743 367.657 486.976 366.555C484.228 365.452 481.835 363.863 479.816 361.825C477.798 359.788 476.209 357.358 475.068 354.516C473.928 351.675 473.349 348.553 473.349 345.132C473.349 341.637 473.928 338.459 475.106 335.617C476.265 332.776 477.891 330.365 479.947 328.364C482.004 326.364 484.434 324.831 487.2 323.766C489.967 322.7 492.958 322.158 496.173 322.158C499.145 322.158 502.061 322.7 504.94 323.803C507.819 324.887 510.137 326.495 511.931 328.589L505.034 335.748C504.08 334.384 502.828 333.374 501.295 332.72C499.743 332.066 498.154 331.729 496.547 331.729C494.771 331.729 493.126 332.066 491.649 332.739C490.154 333.412 488.883 334.365 487.817 335.543C486.752 336.739 485.91 338.141 485.312 339.767C484.714 341.394 484.415 343.169 484.415 345.113C484.415 347.095 484.714 348.908 485.312 350.553C485.91 352.198 486.733 353.619 487.78 354.778C488.827 355.956 490.079 356.871 491.556 357.526C493.014 358.18 494.621 358.516 496.379 358.516C498.397 358.516 500.155 358.105 501.669 357.283C503.183 356.46 504.379 355.395 505.295 354.067L512.361 360.984C510.473 363.208 508.174 364.966 505.445 366.274Z" fill="#FFB71B"/>
<path d="M610.407 336.795C610.407 339.356 609.959 341.506 609.043 343.244C608.127 345.001 606.912 346.403 605.36 347.469C603.809 348.534 602.033 349.319 600.014 349.824C597.995 350.31 595.883 350.572 593.714 350.572H588.667V367.059H578.498V323.336H593.957C596.257 323.336 598.406 323.579 600.406 324.046C602.407 324.513 604.145 325.28 605.641 326.327C607.117 327.374 608.295 328.757 609.155 330.458C609.977 332.159 610.407 334.271 610.407 336.795ZM600.238 336.851C600.238 335.823 600.033 334.982 599.64 334.327C599.247 333.673 598.705 333.15 598.032 332.776C597.359 332.402 596.593 332.159 595.752 332.028C594.892 331.897 594.013 331.841 593.097 331.841H588.648V342.16H592.929C593.883 342.16 594.798 342.085 595.658 341.917C596.537 341.749 597.303 341.468 598.014 341.057C598.705 340.646 599.247 340.104 599.64 339.412C600.051 338.739 600.238 337.879 600.238 336.851Z" fill="#FFB71B"/>
<path d="M703.312 367.041L700.041 358.46H683.759L680.675 367.041H669.627L687.273 323.317H697.143L714.621 367.041H703.312ZM692.021 335.001L686.675 350.011H697.255L692.021 335.001Z" fill="#FFB71B"/>
<path d="M814.836 434.504H4V4H1252.16V434.504H1143.85" stroke="#FFB71B" stroke-width="6.6876" stroke-miterlimit="10"/>
</svg>
